<mxfile host="app.diagrams.net" agent="Mozilla/5.0 (Windows NT 10.0; Win64; x64) AppleWebKit/537.36 (KHTML, like Gecko) Chrome/137.0.0.0 Safari/537.36 Edg/137.0.0.0" version="27.1.4">
  <diagram name="Страница — 1" id="VITqMJHGawG_AV4IwLpY">
    <mxGraphModel dx="1314" dy="420" grid="1" gridSize="10" guides="1" tooltips="1" connect="1" arrows="1" fold="1" page="0" pageScale="1" pageWidth="827" pageHeight="1169" math="0" shadow="0">
      <root>
        <mxCell id="0" />
        <mxCell id="1" parent="0" />
        <mxCell id="oMOa3SXm_goFEWfaKYYf-7" style="edgeStyle=none;curved=1;rounded=0;orthogonalLoop=1;jettySize=auto;html=1;fontSize=12;startSize=8;endSize=8;endArrow=none;startFill=0;" parent="1" source="JWygc2-lEyXVkWZMa3_q-1" target="oMOa3SXm_goFEWfaKYYf-3" edge="1">
          <mxGeometry relative="1" as="geometry" />
        </mxCell>
        <mxCell id="JWygc2-lEyXVkWZMa3_q-1" value="Пользователь&lt;div&gt;(куратор)&lt;/div&gt;" style="shape=umlActor;verticalLabelPosition=bottom;verticalAlign=top;html=1;" parent="1" vertex="1">
          <mxGeometry x="-30" y="653" width="30" height="60" as="geometry" />
        </mxCell>
        <mxCell id="oMOa3SXm_goFEWfaKYYf-2" value=":База данных тестов" style="html=1;whiteSpace=wrap;" parent="1" vertex="1">
          <mxGeometry x="535" y="656.5" width="110" height="50" as="geometry" />
        </mxCell>
        <mxCell id="oMOa3SXm_goFEWfaKYYf-8" style="edgeStyle=none;curved=1;rounded=0;orthogonalLoop=1;jettySize=auto;html=1;fontSize=12;startSize=8;endSize=8;strokeColor=default;align=center;verticalAlign=middle;fontFamily=Helvetica;fontColor=default;labelBackgroundColor=default;startFill=0;endArrow=none;" parent="1" source="oMOa3SXm_goFEWfaKYYf-3" target="oMOa3SXm_goFEWfaKYYf-2" edge="1">
          <mxGeometry relative="1" as="geometry" />
        </mxCell>
        <mxCell id="oMOa3SXm_goFEWfaKYYf-3" value=":Система стажерской программы" style="html=1;whiteSpace=wrap;" parent="1" vertex="1">
          <mxGeometry x="256" y="653" width="124" height="57" as="geometry" />
        </mxCell>
        <mxCell id="oMOa3SXm_goFEWfaKYYf-9" value="1. Ввести данные для создания теста&lt;div&gt;5. Ввести вопросы&lt;/div&gt;" style="html=1;verticalAlign=bottom;endArrow=block;curved=0;rounded=0;strokeColor=default;align=center;fontFamily=Helvetica;fontSize=12;fontColor=default;labelBackgroundColor=default;edgeStyle=none;startSize=8;endSize=8;" parent="1" edge="1">
          <mxGeometry x="-0.0036" y="19" width="80" relative="1" as="geometry">
            <mxPoint x="100" y="660" as="sourcePoint" />
            <mxPoint x="200" y="660" as="targetPoint" />
            <mxPoint as="offset" />
          </mxGeometry>
        </mxCell>
        <mxCell id="oMOa3SXm_goFEWfaKYYf-10" value="2. Создать тест в системе" style="html=1;verticalAlign=bottom;endArrow=block;curved=0;rounded=0;strokeColor=default;align=center;fontFamily=Helvetica;fontSize=12;fontColor=default;labelBackgroundColor=default;edgeStyle=none;startSize=8;endSize=8;" parent="1" edge="1">
          <mxGeometry x="0.05" y="19" width="80" relative="1" as="geometry">
            <mxPoint x="410" y="671" as="sourcePoint" />
            <mxPoint x="497" y="671" as="targetPoint" />
            <mxPoint as="offset" />
          </mxGeometry>
        </mxCell>
        <mxCell id="oMOa3SXm_goFEWfaKYYf-12" value="&lt;div&gt;3. Вернуть информацию о тесте&lt;/div&gt;" style="html=1;verticalAlign=bottom;endArrow=block;curved=0;rounded=0;strokeColor=default;align=center;fontFamily=Helvetica;fontSize=12;fontColor=default;labelBackgroundColor=default;edgeStyle=none;startSize=8;endSize=8;" parent="1" edge="1">
          <mxGeometry x="-0.1494" y="60" width="80" relative="1" as="geometry">
            <mxPoint x="497" y="690" as="sourcePoint" />
            <mxPoint x="410" y="690" as="targetPoint" />
            <mxPoint as="offset" />
          </mxGeometry>
        </mxCell>
        <mxCell id="oMOa3SXm_goFEWfaKYYf-13" value="&lt;div&gt;4. Получить информацию о тесте&lt;/div&gt;&lt;div&gt;8. Просмотр созданных вопросов&lt;/div&gt;" style="html=1;verticalAlign=bottom;endArrow=block;curved=0;rounded=0;strokeColor=default;align=center;fontFamily=Helvetica;fontSize=12;fontColor=default;labelBackgroundColor=default;edgeStyle=none;startSize=8;endSize=8;" parent="1" edge="1">
          <mxGeometry y="50" width="80" relative="1" as="geometry">
            <mxPoint x="200" y="700" as="sourcePoint" />
            <mxPoint x="100" y="700" as="targetPoint" />
            <mxPoint as="offset" />
          </mxGeometry>
        </mxCell>
        <mxCell id="8P5xu5eNHJAbeMb97yjf-1" value=":База данных вопросов" style="html=1;whiteSpace=wrap;" vertex="1" parent="1">
          <mxGeometry x="263" y="840" width="110" height="50" as="geometry" />
        </mxCell>
        <mxCell id="8P5xu5eNHJAbeMb97yjf-2" style="edgeStyle=none;curved=1;rounded=0;orthogonalLoop=1;jettySize=auto;html=1;fontSize=12;startSize=8;endSize=8;strokeColor=default;align=center;verticalAlign=middle;fontFamily=Helvetica;fontColor=default;labelBackgroundColor=default;startFill=0;endArrow=none;" edge="1" parent="1" source="oMOa3SXm_goFEWfaKYYf-3" target="8P5xu5eNHJAbeMb97yjf-1">
          <mxGeometry relative="1" as="geometry">
            <mxPoint x="430" y="840" as="sourcePoint" />
            <mxPoint x="585" y="840" as="targetPoint" />
          </mxGeometry>
        </mxCell>
        <mxCell id="8P5xu5eNHJAbeMb97yjf-3" value="&lt;div&gt;6. Создать вопросы&lt;/div&gt;" style="html=1;verticalAlign=bottom;endArrow=block;curved=0;rounded=0;strokeColor=default;align=center;fontFamily=Helvetica;fontSize=12;fontColor=default;labelBackgroundColor=default;edgeStyle=none;startSize=8;endSize=8;" edge="1" parent="1">
          <mxGeometry x="0.4" y="80" width="80" relative="1" as="geometry">
            <mxPoint x="340" y="730" as="sourcePoint" />
            <mxPoint x="340" y="830" as="targetPoint" />
            <mxPoint as="offset" />
          </mxGeometry>
        </mxCell>
        <mxCell id="8P5xu5eNHJAbeMb97yjf-4" value="&lt;div&gt;7. Вернуть созданные вопросы&lt;/div&gt;" style="html=1;verticalAlign=bottom;endArrow=block;curved=0;rounded=0;strokeColor=default;align=center;fontFamily=Helvetica;fontSize=12;fontColor=default;labelBackgroundColor=default;edgeStyle=none;startSize=8;endSize=8;" edge="1" parent="1">
          <mxGeometry x="-0.4" y="90" width="80" relative="1" as="geometry">
            <mxPoint x="300" y="830" as="sourcePoint" />
            <mxPoint x="300" y="730" as="targetPoint" />
            <mxPoint as="offset" />
          </mxGeometry>
        </mxCell>
      </root>
    </mxGraphModel>
  </diagram>
</mxfile>
